<?xml version="1.0" encoding="UTF-8"?>
<svg id="Vrstva_1" data-name="Vrstva 1" xmlns="http://www.w3.org/2000/svg" viewBox="0 0 85.04 85.04">
  <defs>
    <style>
      .cls-1 {
        fill: #cb9a99;
      }
    </style>
  </defs>
  <path class="cls-1" d="M28.66,4.22c2.17.22,4.17.82,6.19,1.85,2.16,1.11,4.06,2.64,5.67,4.46,2.87,3.24,5.06,7.75,5.42,12.1.72-1.35.9-1.7,1.24-2.26.5-.85,1.07-1.67,1.68-2.44,1.31-1.65,2.87-3.13,4.62-4.31,3.58-2.42,8.05-3.57,12.31-2.57,8.94,2.09,11.65,11.9,11.15,19.98-1.16,18.94-13.03,35.42-29.66,44.14-7.78,4.07-17.46,6.8-26.26,5.31-1.85-.32-3.9-.78-5.54-1.74-.33-.2-1.47-.7-1.31-1.25.16-.56,2.3.5,2.49.58,4.42,1.8,9.28,1.7,13.91.88,17.06-2.99,33.25-16.96,39.16-33.21,2.82-7.74,5.39-18.06,2.24-26.1-3.66-9.33-14.87-6.66-20.81-1.26-1.5,1.36-2.39,2.8-3.41,4.56-.45.77-1.04,1.78-1.28,2.85-.11.5-.39,2.45-.85,2.7-1.59.88-1.53-3.11-1.59-3.86-.21-2.3-.7-4.57-1.49-6.74-2.88-7.82-11.2-14.75-19.77-10.79-7.61,3.53-11.46,12.62-12.36,20.5-1.04,9.1,2.48,18.18,7.23,25.79,4.37,7.01,11.64,15.59,20.86,12.21,8.57-3.13,12.22-12.35,14.92-20.28,1.16-3.4,2.28-9.55.01-13.89-2-3.82-7.35,2.55-8.46,4.69-.94,1.81-1.55,3.81-1.85,5.82-.41,2.74-1.37.6-1.87-.88-.6-1.82-4.35-10.77-6.68-7.78-2.65,3.41-.94,8.46,1.22,11.6.55.81,1.18,1.56,1.85,2.27.39.41,2.09,1.54,2.17,2,.21,1.13-2.36,0-3.02-.41-3.28-2.05-5.54-6.17-6.22-9.88-.64-3.44.03-8.93,4.74-8.38,4.34.51,5.17,5.15,6.88,8.31,1.16-4.07,3.77-9.82,8.53-10.52,5.49-.81,7.35,6.12,7.14,10.27-.51,9.89-5.48,21.68-14.28,26.9-4.3,2.54-9.8,3.01-14.41,1.01-4.74-2.05-8.35-6.45-11.29-10.54-6.06-8.42-10.76-18.56-9.63-29.17C9.42,15.56,17.34,3.05,28.66,4.22"/>
</svg>