<?xml version="1.0" encoding="UTF-8"?>
<svg id="Vrstva_1" data-name="Vrstva 1" xmlns="http://www.w3.org/2000/svg" viewBox="0 0 492.04 87.24">
  <defs>
    <style>
      .cls-1 {
        fill: #cb9a99;
      }

      .cls-2 {
        fill: #676665;
      }
    </style>
  </defs>
  <g>
    <path class="cls-2" d="M118.9,65.66c-.46-.88-.69-2.01-.69-3.4,0-.69.02-1.22.07-1.59.32-2.4.79-4.78,1.39-7.14.6-2.36,1.41-5.29,2.43-8.8,1.71-5.77,3.14-10.67,4.3-14.69.23-.83.48-2.03.76-3.6.09-.83.18-1.41.28-1.73.09-.32.14-.83.14-1.52-.14-.69-.49-1.04-1.04-1.04-.32,0-.58.05-.76.14-1.29.69-2.47,1.64-3.53,2.84-3.51,3.97-6.47,7.85-8.87,11.64l-3.33,5.34c-2.77,4.53-4.6,7.58-5.47,9.15-.65,1.29-1.43,2.22-2.36,2.77-.46.28-.9.42-1.32.42h-.14c-.6,0-1.09-.37-1.46-1.11-.19-.65-.23-1.39-.14-2.22.14-1.2.37-2.49.69-3.88.32-1.39.67-2.75,1.04-4.09,1.2-4.06,2.06-7.11,2.56-9.15l.55-2.77c.05-.46.16-1.15.35-2.08.05-.14.06-.29.04-.45-.02-.16-.01-.33.03-.52-.46,0-.92.23-1.39.69-.23.23-.66.65-1.28,1.25-.62.6-1.12,1.16-1.49,1.66-1.99,2.45-4.2,5.8-6.65,10.05-2.59,4.34-5.38,9.15-8.39,14.41-.46.74-.83,1.29-1.11,1.66-.46.69-1.02.97-1.66.83-.74-.14-1.22-.58-1.46-1.32-.23-.69-.35-1.34-.35-1.94,0-.23.05-.62.14-1.18.23-1.85.65-3.6,1.25-5.27,2.31-7.11,4.8-14.55,7.48-22.31l1.46-3.95c.28-.46.51-.81.69-1.04.32-.37.72-.53,1.18-.48.46.05.74.32.83.83.05.23.07.58.07,1.04-.19,1.89-.65,4.18-1.39,6.86-.74,2.17-1.38,4.11-1.91,5.82-.53,1.71-1,3.19-1.42,4.44l-2.98,9.08c-.23.65-.53,1.62-.9,2.91l.14.14,1.53-2.43c.46-.79,1.2-1.96,2.22-3.53l3.12-5.2c1.29-2.08,2.75-4.48,4.37-7.21,1.71-2.68,3.19-4.69,4.44-6.03.28-.37.67-.74,1.18-1.11.51-.37.9-.67,1.18-.9.28-.28.72-.46,1.32-.55.79-.09,1.47.02,2.04.35.58.32.98.86,1.21,1.59.14.55.21,1.11.21,1.66,0,.42-.02.72-.07.9-.28,2.82-.95,6.08-2.01,9.77-.83,2.77-1.59,5.61-2.29,8.52-.09.42-.12.74-.07.97l.48-.9c4.76-8.18,8.8-14.62,12.13-19.33.32-.51,1.27-1.75,2.84-3.74l1.59-2.08c.92-1.11,2.26-2.29,4.02-3.53.83-.55,1.66-.83,2.5-.83,1.02,0,1.91.37,2.67,1.11.76.74,1.21,1.64,1.35,2.7.09.37.14.92.14,1.66,0,.55-.05,1.29-.14,2.22-.32,1.66-.99,4.25-2.01,7.76l-.69,2.43-1.87,6.79c-.97,3.23-2.1,7.28-3.4,12.13-.23.92-.48,2.26-.76,4.02l-.42,2.36c-.19,1.15-.44,2.38-.76,3.67-.23.74-.65,1.11-1.25,1.11-.51,0-.9-.35-1.18-1.04Z"/>
    <path class="cls-2" d="M136.5,55.12c-1.16,0-2.12-.44-2.91-1.32-1.15-1.02-1.8-2.49-1.94-4.44l.35-2.22c.37-1.94,1.27-4.16,2.7-6.65.37-.65.69-1.08.97-1.32.37-.37.76-.65,1.18-.83.14-.05.35-.07.62-.07.55,0,.98.21,1.28.62.3.42.38.9.24,1.46-.14.6-.39,1.2-.76,1.8-1.48,2.77-2.4,5.27-2.77,7.48-.09.65-.14,1.09-.14,1.32,0,.28.04.65.14,1.11.09.37.27.67.52.9.25.23.54.35.87.35.14,0,.35-.05.62-.14.97-.28,1.85-.76,2.63-1.46,2.36-2.36,4.57-5.13,6.65-8.32.23-.28.42-.53.55-.76.14-.23.28-.44.42-.62.28-.37.55-.49.83-.35.14.09.22.22.24.38.02.16-.01.34-.1.52-.05.05-.28.44-.69,1.18-.42.55-1.09,1.52-2.01,2.91l-2.08,2.91c-.88,1.11-1.64,2-2.29,2.67-.65.67-1.36,1.24-2.15,1.7-.79.55-1.52.92-2.22,1.11-.18.05-.44.07-.76.07ZM138.99,33.5c.04-.69.39-1.48,1.04-2.36.28-.28.62-.35,1.04-.21.42.19.62.51.62.97-.09.55-.2,1-.31,1.35-.12.35-.34.68-.66,1-.19.32-.55.44-1.11.35-.46-.18-.67-.55-.62-1.11Z"/>
    <path class="cls-2" d="M149.25,56.58c-1.2,0-2.33-.48-3.4-1.46-1.06-.97-1.52-2.31-1.39-4.02.09-1.29.3-2.49.62-3.6,1.29-3.79,3.3-7.02,6.03-9.7.83-.83,1.64-1.36,2.43-1.59.69-.14,1.06-.21,1.11-.21.55-.05,1.04.07,1.46.35.42.28.69.69.83,1.25.05.19.07.46.07.83,0,.51-.07,1.04-.21,1.59-.05.32-.25.46-.62.42-.23-.09-.39-.25-.49-.48-.05-.05-.07-.18-.07-.42,0-.14.02-.43.07-.87.05-.44-.05-.61-.28-.52-.55.23-1.04.62-1.46,1.18-2.87,3.97-4.85,7.81-5.96,11.5-.18.88-.3,1.48-.35,1.8-.18,1.39.46,2.13,1.94,2.22.97,0,1.85-.25,2.63-.76,1.06-.51,2.01-1.06,2.84-1.66,3.79-2.59,7.07-5.57,9.84-8.94l.9-.97c.32-.32.6-.35.83-.07.23.23.21.49-.07.76-.79,1.02-2.01,2.5-3.67,4.44-1.11,1.2-2.96,2.77-5.54,4.71-1.57,1.11-3.07,2.13-4.5,3.05-.37.23-1.13.55-2.29.97-.46.14-.9.21-1.32.21Z"/>
    <path class="cls-2" d="M163.32,57.86c-.28-.25-.44-.61-.49-1.07-.05-.28-.07-.69-.07-1.25,0-.92.09-1.76.28-2.49l1.52-6.44c.14-.46.35-1.18.62-2.15.28-.97.51-1.89.69-2.77l.55-1.73c1.29-4.25,2.4-7.39,3.33-9.42,1.34-2.77,2.31-4.69,2.91-5.75.28-.55.67-1.15,1.18-1.8.51-.65.85-1.11,1.04-1.39.55-.65,1.25-1.06,2.08-1.25.65-.09,1.18,0,1.59.28.42.28.65.74.69,1.39,0,1.16-.05,2.01-.14,2.56-.23,1.39-.62,2.74-1.18,4.05-.55,1.32-1.25,2.81-2.08,4.47-1.43,2.82-3.17,5.36-5.2,7.62-.46.55-.72,1.04-.76,1.46-.37,1.11-.83,2.87-1.39,5.27l.55-.83,1.39-2.01,2.29-3.33c.88-1.25,2.01-2.17,3.4-2.77.55-.28,1.08-.42,1.59-.42.65,0,1.19.21,1.63.62.44.42.73,1.02.87,1.8v.69c0,.69-.07,1.39-.21,2.08-.65,2.13-1.16,3.72-1.52,4.78-.65,1.99-1.06,3.67-1.25,5.06-.05.32-.06.64-.03.94.02.3.01.64-.04,1,.83-.18,1.46-.58,1.87-1.18l3.6-4.16,6.03-7.42c.28-.32.46-.53.55-.62.28-.18.49-.23.62-.14.14.14.21.35.21.62,0,.09-.02.17-.07.24s-.09.13-.14.17l-1.87,2.63c-2.96,4.16-5.24,7.21-6.86,9.15-.92,1.06-1.83,1.89-2.7,2.5-.46.28-.99.48-1.59.62-.37.09-.65.14-.83.14-.6,0-1.12-.17-1.56-.52-.44-.35-.77-.84-1-1.49-.09-.32-.14-.83-.14-1.52,0-.42.05-1.08.14-2.01.18-1.29.5-2.62.94-3.98.44-1.36.7-2.16.8-2.39.51-1.57.9-2.93,1.18-4.09l.21-.83c-.42.09-.92.37-1.53.83-.92,1.02-1.59,1.8-2.01,2.36-2.36,3.05-4.27,6.14-5.75,9.29-.69,1.2-1.15,2.43-1.39,3.67-.09.37-.29.69-.59.97-.3.28-.63.39-1,.35-.37,0-.69-.13-.97-.38ZM171.77,36.55c2.4-3.46,4.11-6.7,5.13-9.7.37-1.29.55-2.24.55-2.84,0-.28-.05-.69-.14-1.25l-.69.97c-.19.32-.41.73-.66,1.21-.25.48-.52,1.05-.8,1.7l-1.25,3.53-2.22,5.89-.21.83c.18-.18.28-.3.28-.35Z"/>
    <path class="cls-2" d="M195.19,60.8c-.79-1.02-1.11-2.19-.97-3.53.14-1.66.37-3.09.69-4.3l1.25-4.23.55-1.66.21-.69h-.07l-3.05,3.6-3.95,4.02c-.46.46-1.11.86-1.94,1.18-.46.19-.83.28-1.11.28-.97,0-1.69-.55-2.15-1.66-.23-.51-.35-1.13-.35-1.87,0-.55.07-1.11.21-1.66.92-4.16,2.7-7.46,5.34-9.91.51-.46,1.36-1.06,2.56-1.8.55-.28,1.06-.42,1.52-.42.74,0,1.46.28,2.15.83.79.69,1.34,1.55,1.66,2.56.05.09.16.42.35.97.51-.55,1.13-1.48,1.87-2.77l.42-.69c.28-.32.58-.49.9-.49.55,0,.92.28,1.11.83.09.46.11.83.07,1.11-.14.65-.32,1.43-.55,2.36-1.76,6.1-3.05,10.67-3.88,13.72-.14.51-.3,1.27-.48,2.29v.35c0,.46.18.69.55.69.14,0,.35-.05.62-.14,1.25-.69,2.51-2.02,3.78-3.98,1.27-1.96,2.99-4.86,5.16-8.7l2.98-5.2c.32-.42.62-.53.9-.35.14.14.21.25.21.35,0,.14-.12.39-.35.76-2.45,5.04-4.54,9.06-6.27,12.06-1.73,3-3.43,5.13-5.09,6.38-.69.46-1.62.74-2.77.83-.79,0-1.48-.37-2.08-1.11ZM188.68,52.56l1.46-1.11c1.02-.83,1.96-1.73,2.84-2.7.88-.97,1.69-1.91,2.43-2.81.74-.9,1.22-1.49,1.46-1.77.18-.18.28-.37.28-.55-.19-.74-.37-1.34-.55-1.8-.19-.46-.49-.88-.9-1.25-.46-.37-.86-.55-1.18-.55s-.67.19-1.04.55c-1.39,1.57-2.29,2.7-2.7,3.4-1.34,1.99-2.33,4.57-2.98,7.76-.05.23-.07.67-.07,1.32l.97-.49Z"/>
    <path class="cls-2" d="M208.95,53.94c-.85-.74-1.38-1.78-1.56-3.12-.14-1.76.12-3.72.76-5.89.65-2.17,1.55-3.97,2.7-5.41.51-.74,1.25-1.55,2.22-2.43,1.02-.92,2.17-1.46,3.46-1.59h.42c.51,0,.88.02,1.11.07.46.14.83.42,1.11.83.28.42.37.88.28,1.39,0,.42-.05.72-.14.9-1.06,2.77-2.87,4.88-5.41,6.31-.28.23-.79.44-1.52.62-.42.14-.65.37-.69.69-.37,1.11-.55,2.15-.55,3.12,0,.55.07,1.16.21,1.8.14.55.35.94.62,1.14.28.21.72.36,1.32.45,1.43.14,2.91-.3,4.43-1.32,1.06-.69,2.55-1.94,4.47-3.74,1.92-1.8,3.43-3.35,4.54-4.64l.97-1.11.49-.35.21-.07c.14,0,.26.06.38.17.12.12.15.27.1.45l-.35.49c-1.16,1.71-2.87,3.65-5.13,5.82-2.26,2.17-4.25,3.79-5.96,4.85-1.71,1.11-3.44,1.66-5.2,1.66-1.34,0-2.44-.37-3.29-1.11ZM215.98,41.82c1.15-1.39,1.78-2.66,1.87-3.81-.05.05-.1.07-.17.07s-.13.02-.17.07c-.18.05-.42.19-.69.42-1.76,1.76-3.1,3.49-4.02,5.2-.05.05-.14.25-.28.62,1.15-.32,2.31-1.18,3.46-2.56Z"/>
    <path class="cls-2" d="M228.66,61.01c-.55,0-1.13-.3-1.73-.9-.88-1.06-1.39-2.4-1.53-4.02-.09-1.2-.14-1.96-.14-2.29,0-.92.16-2.12.48-3.6.88-5.13,2.68-10.83,5.41-17.12l2.08-4.85c.88-2.03,2.31-4.25,4.3-6.65.65-.65,1.08-1.04,1.32-1.18.32-.28.72-.42,1.18-.42.28,0,.58.07.9.21.74.46,1.04,1.06.9,1.8-.19,1.48-.37,2.59-.55,3.33-.83,3.7-2.56,7.76-5.2,12.2-1.2,1.94-2.13,3.4-2.77,4.37l-1.87,2.91c-.46.74-.74,1.36-.83,1.87-.51,1.76-.99,4.39-1.46,7.9l-.28,3.26v.55c0,.37.04.58.14.62l.35.07c.23,0,.45-.06.66-.17.21-.12.33-.2.38-.24,1.39-.97,2.96-2.67,4.71-5.09,1.76-2.43,4.18-6.11,7.28-11.05l.42-.69c.14-.14.32-.16.55-.07.23.14.25.44.07.9-1.02,2.26-2.89,5.36-5.61,9.29-2.73,3.93-4.81,6.49-6.24,7.69-.69.51-1.32.88-1.87,1.11-.32.18-.67.28-1.04.28ZM232.41,41.19c2.4-3.88,4.18-7.21,5.34-9.98,1.06-2.54,1.73-4.74,2.01-6.58.04-.23.07-.55.07-.97-.05-.05-.12-.07-.21-.07-2.31,4.71-4.78,10.63-7.42,17.74.14,0,.21-.05.21-.14Z"/>
    <path class="cls-2" d="M249.25,60.8c-.79-1.02-1.11-2.19-.97-3.53.14-1.66.37-3.09.69-4.3l1.25-4.23.55-1.66.21-.69h-.07l-3.05,3.6-3.95,4.02c-.46.46-1.11.86-1.94,1.18-.46.19-.83.28-1.11.28-.97,0-1.69-.55-2.15-1.66-.23-.51-.35-1.13-.35-1.87,0-.55.07-1.11.21-1.66.92-4.16,2.7-7.46,5.34-9.91.51-.46,1.36-1.06,2.56-1.8.55-.28,1.06-.42,1.52-.42.74,0,1.46.28,2.15.83.79.69,1.34,1.55,1.66,2.56.05.09.16.42.35.97.51-.55,1.13-1.48,1.87-2.77l.42-.69c.28-.32.58-.49.9-.49.55,0,.92.28,1.11.83.09.46.11.83.07,1.11-.14.65-.32,1.43-.55,2.36-1.76,6.1-3.05,10.67-3.88,13.72-.14.51-.3,1.27-.48,2.29v.35c0,.46.18.69.55.69.14,0,.35-.05.62-.14,1.25-.69,2.51-2.02,3.78-3.98,1.27-1.96,2.99-4.86,5.16-8.7l2.98-5.2c.32-.42.62-.53.9-.35.14.14.21.25.21.35,0,.14-.12.39-.35.76-2.45,5.04-4.54,9.06-6.27,12.06-1.73,3-3.43,5.13-5.09,6.38-.69.46-1.62.74-2.77.83-.79,0-1.48-.37-2.08-1.11ZM242.73,52.56l1.46-1.11c1.02-.83,1.96-1.73,2.84-2.7.88-.97,1.69-1.91,2.43-2.81.74-.9,1.22-1.49,1.46-1.77.18-.18.28-.37.28-.55-.19-.74-.37-1.34-.55-1.8-.19-.46-.49-.88-.9-1.25-.46-.37-.86-.55-1.18-.55s-.67.19-1.04.55c-1.39,1.57-2.29,2.7-2.7,3.4-1.34,1.99-2.33,4.57-2.98,7.76-.05.23-.07.67-.07,1.32l.97-.49Z"/>
    <path class="cls-2" d="M283.55,65.1c-.74,0-1.57-.12-2.49-.35-.92-.28-1.64-.69-2.15-1.25-.51-.55-.76-1.2-.76-1.94,0-.83.3-1.64.9-2.43.92-1.29,2.31-2.66,4.16-4.09,2.4-1.94,5.41-3.65,9.01-5.13l2.22-.9s-.35-.42-.9-1.11c-.97-1.11-1.43-1.64-1.39-1.59l-2.22-2.36-4.44-4.71c-.88-.97-1.59-1.85-2.15-2.63-.92-1.34-1.39-2.66-1.39-3.95,0-1.15.32-2.33.97-3.53,1.11-2.03,2.77-3.86,4.99-5.47,3.7-2.77,8.01-4.6,12.96-5.47,1.25-.28,2.5-.42,3.74-.42.79,0,1.59.07,2.43.21,1.29.23,2.33.58,3.12,1.04,1.62,1.02,2.38,2.49,2.29,4.44-.09,1.29-.44,2.45-1.04,3.47-2.82,5.13-6.54,8.82-11.16,11.09l-1.32.55-.28.07c-.28,0-.51-.16-.69-.48v-.14c0-.32.16-.55.48-.69,2.17-.92,4.09-2.17,5.75-3.74,1.66-1.57,3.26-3.49,4.78-5.75,1.02-1.48,1.57-2.84,1.66-4.09.23-1.71-.42-2.84-1.94-3.4-1.16-.46-2.4-.65-3.74-.55-6.47.51-11.87,2.89-16.22,7.14-1.02.92-1.9,2.15-2.63,3.67-.28.6-.42,1.18-.42,1.73,0,.79.3,1.55.9,2.29l1.11,1.25,2.5,2.77,6.03,6.44c.42.46.77.9,1.07,1.32.3.42.59.79.87,1.11l5.06-2.08,8.59-3.46c.37-.18.74-.28,1.11-.28.46,0,.77.13.94.38.16.25.1.45-.17.59-1.66.83-3.77,1.76-6.31,2.77l-7.48,3.05-.97.35c.23.55.35.86.35.9.42,1.11.62,2.17.62,3.19,0,1.52-.46,3.03-1.39,4.5-.55.88-1.29,1.73-2.22,2.56-3.33,2.86-7.09,4.53-11.3,4.99-.65.09-1.13.14-1.46.14ZM285.7,61.08c3.09-.88,5.61-2.1,7.55-3.67.79-.65,1.41-1.32,1.87-2.01.55-.83.83-1.69.83-2.56,0-.79-.23-1.62-.69-2.49-3.88,1.62-7.09,3.35-9.63,5.2-1.57,1.2-2.75,2.29-3.53,3.26-.46.51-.88,1.11-1.25,1.8-.09.14-.14.32-.14.55,0,.28.23.44.69.49.51.09.88.11,1.11.07,1.89-.37,2.96-.58,3.19-.62Z"/>
    <path class="cls-2" d="M311.03,53.94c-.85-.74-1.38-1.78-1.56-3.12-.14-1.76.12-3.72.76-5.89.65-2.17,1.55-3.97,2.7-5.41.51-.74,1.25-1.55,2.22-2.43,1.02-.92,2.17-1.46,3.46-1.59h.42c.51,0,.88.02,1.11.07.46.14.83.42,1.11.83.28.42.37.88.28,1.39,0,.42-.05.72-.14.9-1.06,2.77-2.87,4.88-5.41,6.31-.28.23-.79.44-1.52.62-.42.14-.65.37-.69.69-.37,1.11-.55,2.15-.55,3.12,0,.55.07,1.16.21,1.8.14.55.35.94.62,1.14.28.21.72.36,1.32.45,1.43.14,2.91-.3,4.43-1.32,1.06-.69,2.55-1.94,4.47-3.74,1.92-1.8,3.43-3.35,4.54-4.64l.97-1.11.49-.35.21-.07c.14,0,.26.06.38.17.12.12.15.27.1.45l-.35.49c-1.16,1.71-2.87,3.65-5.13,5.82-2.26,2.17-4.25,3.79-5.96,4.85-1.71,1.11-3.44,1.66-5.2,1.66-1.34,0-2.44-.37-3.29-1.11ZM318.06,41.82c1.15-1.39,1.78-2.66,1.87-3.81-.05.05-.1.07-.17.07s-.13.02-.17.07c-.18.05-.42.19-.69.42-1.76,1.76-3.1,3.49-4.02,5.2-.05.05-.14.25-.28.62,1.15-.32,2.31-1.18,3.46-2.56Z"/>
    <path class="cls-2" d="M337.05,67.04c-.88,0-1.59-.51-2.15-1.52-.6-1.06-.99-2.47-1.18-4.23-.09-.92-.14-1.64-.14-2.15,0-1.48.21-3.35.62-5.61.18-1.02.51-2.54.97-4.57l.49-2.29.14-.55-.14-.07-1.87,2.84-3.53,4.85c-.23.37-.6.72-1.11,1.04-.46.32-.9.49-1.32.49-.69,0-1.27-.35-1.73-1.04-.51-.69-.74-1.41-.69-2.15,0-1.02.09-1.92.28-2.7.92-3.23,2.43-6.1,4.5-8.59.51-.6,1.18-1.18,2.01-1.73.65-.37,1.25-.55,1.8-.55,1.29,0,2.26.69,2.91,2.08l.28.62.55-1.32.76-1.94c.6-1.62,1.27-3.37,2.01-5.27,1.29-3.09,2.86-6.12,4.71-9.08.18-.32.69-1.06,1.52-2.22.28-.37.62-.65,1.04-.83.14-.09.32-.14.55-.14.32,0,.58.09.76.28.37.28.49.67.35,1.18-.05.23-.12.42-.21.55-.09.14-.16.28-.21.42-.28.55-.46.99-.55,1.32-3.74,8.18-6.42,14.85-8.04,20.03-1.94,6.56-2.98,12.5-3.12,17.81v.97c0,.65.09,1.15.28,1.52.46-.55.81-.99,1.04-1.32l1.46-2.63c1.25-2.54,2.69-5.14,4.33-7.8,1.64-2.66,2.6-4.22,2.88-4.68l1.87-3.05c.14-.23.42-.55.83-.97.23-.32.48-.37.76-.14.18.14.18.39,0,.76l-4.99,8.04c-2.13,3.42-3.93,6.98-5.41,10.67-.55,1.15-.95,1.94-1.18,2.36-.6.88-1.32,1.32-2.15,1.32ZM329.63,51.93c1.06-1.15,2.04-2.36,2.95-3.6.9-1.25,1.98-2.84,3.22-4.78.09-.14.14-.35.14-.62-.32-.83-.53-1.34-.62-1.52-.28-.46-.58-.69-.9-.69s-.62.16-.9.48c-.42.46-.81,1.04-1.18,1.73-1.57,3.28-2.63,6.17-3.19,8.66l-.14.83.62-.49Z"/>
    <path class="cls-2" d="M352.02,61.01c-.55,0-1.13-.3-1.73-.9-.88-1.06-1.39-2.4-1.53-4.02-.09-1.2-.14-1.96-.14-2.29,0-.92.16-2.12.48-3.6.88-5.13,2.68-10.83,5.41-17.12l2.08-4.85c.88-2.03,2.31-4.25,4.3-6.65.65-.65,1.08-1.04,1.32-1.18.32-.28.72-.42,1.18-.42.28,0,.58.07.9.21.74.46,1.04,1.06.9,1.8-.19,1.48-.37,2.59-.55,3.33-.83,3.7-2.56,7.76-5.2,12.2-1.2,1.94-2.13,3.4-2.77,4.37l-1.87,2.91c-.46.74-.74,1.36-.83,1.87-.51,1.76-.99,4.39-1.46,7.9l-.28,3.26v.55c0,.37.04.58.14.62l.35.07c.23,0,.45-.06.66-.17.21-.12.33-.2.38-.24,1.39-.97,2.96-2.67,4.71-5.09,1.76-2.43,4.18-6.11,7.28-11.05l.42-.69c.14-.14.32-.16.55-.07.23.14.25.44.07.9-1.02,2.26-2.89,5.36-5.61,9.29-2.73,3.93-4.81,6.49-6.24,7.69-.69.51-1.32.88-1.87,1.11-.32.18-.67.28-1.04.28ZM355.76,41.19c2.4-3.88,4.18-7.21,5.34-9.98,1.06-2.54,1.73-4.74,2.01-6.58.04-.23.07-.55.07-.97-.05-.05-.12-.07-.21-.07-2.31,4.71-4.78,10.63-7.42,17.74.14,0,.21-.05.21-.14Z"/>
    <path class="cls-2" d="M372.6,60.8c-.79-1.02-1.11-2.19-.97-3.53.14-1.66.37-3.09.69-4.3l1.25-4.23.55-1.66.21-.69h-.07l-3.05,3.6-3.95,4.02c-.46.46-1.11.86-1.94,1.18-.46.19-.83.28-1.11.28-.97,0-1.69-.55-2.15-1.66-.23-.51-.35-1.13-.35-1.87,0-.55.07-1.11.21-1.66.92-4.16,2.7-7.46,5.34-9.91.51-.46,1.36-1.06,2.56-1.8.55-.28,1.06-.42,1.52-.42.74,0,1.46.28,2.15.83.79.69,1.34,1.55,1.66,2.56.05.09.16.42.35.97.51-.55,1.13-1.48,1.87-2.77l.42-.69c.28-.32.58-.49.9-.49.55,0,.92.28,1.11.83.09.46.11.83.07,1.11-.14.65-.32,1.43-.55,2.36-1.76,6.1-3.05,10.67-3.88,13.72-.14.51-.3,1.27-.48,2.29v.35c0,.46.18.69.55.69.14,0,.35-.05.62-.14,1.25-.69,2.51-2.02,3.78-3.98,1.27-1.96,2.99-4.86,5.16-8.7l2.98-5.2c.32-.42.62-.53.9-.35.14.14.21.25.21.35,0,.14-.12.39-.35.76-2.45,5.04-4.54,9.06-6.27,12.06-1.73,3-3.43,5.13-5.09,6.38-.69.46-1.62.74-2.77.83-.79,0-1.48-.37-2.08-1.11ZM366.08,52.56l1.46-1.11c1.02-.83,1.96-1.73,2.84-2.7.88-.97,1.69-1.91,2.43-2.81.74-.9,1.22-1.49,1.46-1.77.18-.18.28-.37.28-.55-.19-.74-.37-1.34-.55-1.8-.19-.46-.49-.88-.9-1.25-.46-.37-.86-.55-1.18-.55s-.67.19-1.04.55c-1.39,1.57-2.29,2.7-2.7,3.4-1.34,1.99-2.33,4.57-2.98,7.76-.05.23-.07.67-.07,1.32l.97-.49ZM374.68,31.91c0-.28.09-.6.28-.97.6-1.48,1.22-2.84,1.87-4.09.09-.28.28-.65.55-1.11.37-.55.85-.76,1.46-.62.46.09.79.51.97,1.25v.55c-.14.74-.25,1.2-.35,1.39l-1.66,3.88c-.19.37-.37.65-.55.83-.32.32-.67.49-1.04.49-.14,0-.35-.05-.62-.14-.6-.23-.9-.72-.9-1.46Z"/>
    <path class="cls-2" d="M389.3,56.58c-1.2,0-2.33-.48-3.4-1.46-1.06-.97-1.52-2.31-1.39-4.02.09-1.29.3-2.49.62-3.6,1.29-3.79,3.3-7.02,6.03-9.7.83-.83,1.64-1.36,2.43-1.59.69-.14,1.06-.21,1.11-.21.55-.05,1.04.07,1.46.35.42.28.69.69.83,1.25.05.19.07.46.07.83,0,.51-.07,1.04-.21,1.59-.05.32-.25.46-.62.42-.23-.09-.39-.25-.49-.48-.05-.05-.07-.18-.07-.42,0-.14.02-.43.07-.87.05-.44-.05-.61-.28-.52-.55.23-1.04.62-1.46,1.18-2.87,3.97-4.85,7.81-5.96,11.5-.18.88-.3,1.48-.35,1.8-.18,1.39.46,2.13,1.94,2.22.97,0,1.85-.25,2.63-.76,1.06-.51,2.01-1.06,2.84-1.66,3.79-2.59,7.07-5.57,9.84-8.94l.9-.97c.32-.32.6-.35.83-.07.23.23.21.49-.07.76-.79,1.02-2.01,2.5-3.67,4.44-1.11,1.2-2.96,2.77-5.54,4.71-1.57,1.11-3.07,2.13-4.5,3.05-.37.23-1.13.55-2.29.97-.46.14-.9.21-1.32.21ZM402.19,23.31c.28,0,.5.1.66.31.16.21.22.47.17.8,0,.28-.09.6-.28.97-1.57,2.26-3.26,4.27-5.06,6.03l-.49.35c-.32.19-.69.28-1.11.28-.79,0-1.27-.39-1.46-1.18-.19-.55-.37-1.57-.55-3.05v-1.52c0-.69-.02-1.22-.07-1.59-.05-.05-.06-.13-.04-.24.02-.11.04-.2.04-.24.09-.42.32-.65.69-.69h.14c.14,0,.26.06.38.17.11.12.2.24.24.38.09.09.14.28.14.55.18,1.48.3,2.59.35,3.33.04.09.07.22.07.38s.04.36.14.59l1.25-1.46,2.15-2.36c.74-.74,1.22-1.18,1.46-1.32.18-.18.44-.32.76-.42.09-.05.23-.07.42-.07Z"/>
    <path class="cls-2" d="M415.21,58.45c-1.16,0-2.26-.6-3.33-1.8-.6-.69-1.19-1.52-1.77-2.49-.58-.97-1.1-1.92-1.56-2.84l-.55-.97c-.65,1.02-1.13,1.96-1.46,2.84-.18.55-.44,1.16-.76,1.8-.23.51-.53.88-.9,1.11-.37.23-.76.28-1.18.14-.42-.14-.71-.4-.9-.8-.18-.39-.23-.87-.14-1.42.23-1.15.62-2.84,1.18-5.06,2.22-8.04,4.74-15.18,7.55-21.41,1.25-2.63,2.33-4.6,3.26-5.89.32-.46.88-1.08,1.66-1.87.42-.37.85-.62,1.32-.76l.49-.07c.79,0,1.29.46,1.52,1.39.05.23.07.55.07.97,0,.46-.02.87-.07,1.21-.05.35-.09.64-.14.87-1.16,6.42-4.02,12.68-8.59,18.78l-.42.55.07.28,3.53-3.05,1.52-1.39.49-.42c.42-.18.74-.16.97.07.32.32.42.65.28.97-.28.46-.51.79-.69.97-1.11,1.16-2.15,2.17-3.12,3.05-1.29,1.16-2.38,2.4-3.26,3.74l2.08,3.6c.92,1.57,1.64,2.75,2.15,3.53.09.19.21.37.35.55.42.6.81.9,1.18.9.32,0,.69-.14,1.11-.42,1.62-1.15,3-2.5,4.16-4.02,1.34-1.76,2.15-2.79,2.43-3.12,1.48-1.89,2.77-3.6,3.88-5.13l.83-1.11c.09-.14.22-.23.38-.28.16-.05.31-.02.45.07.23.19.28.44.14.76-.05.14-.16.35-.35.62-1.25,2.03-2.42,3.79-3.5,5.27-1.09,1.48-2.71,3.6-4.89,6.38-.83,1.06-1.69,1.94-2.56,2.63-.97.83-1.94,1.25-2.91,1.25ZM412.93,36.83c2.54-4.34,4.16-8.64,4.85-12.89.09-.46.14-.83.14-1.11,0-.14-.05-.44-.14-.9-1.2,2.13-2.22,4.26-3.05,6.41-.83,2.15-1.85,5-3.05,8.56-.23.88-.55,1.87-.97,2.98l.14.14,2.08-3.19Z"/>
    <path class="cls-2" d="M428.73,55.95c-1.25,0-2.26-.51-3.05-1.52-.55-.78-.83-1.55-.83-2.29,0-.97.12-2.03.35-3.19.55-2.36,1.5-4.64,2.84-6.86.23-.28.44-.56.62-.87.18-.3.37-.56.55-.8.28-.42.68-.74,1.21-.97.53-.23,1.03-.35,1.49-.35s.79.09.97.28c.18.19.18.46,0,.83-.28.69-.76,1.8-1.46,3.33-.46.92-.91,1.88-1.35,2.88-.44.99-.77,1.93-1,2.81-.23,1.16-.35,2.24-.35,3.26,0,.74.25,1.11.76,1.11.14,0,.39-.05.76-.14.83-.28,1.59-.78,2.29-1.52,1.48-1.52,2.52-3.19,3.12-4.99l.62-2.08c-1.34-.69-2.15-1.59-2.43-2.7-.09-.46-.14-.76-.14-.9,0-.69.25-1.43.76-2.22.42-.42.85-.62,1.32-.62.6,0,1.06.28,1.39.83.51.88.76,1.87.76,2.98l-.07.9c0,.14-.05.44-.14.9.42.05.99.07,1.73.07,1.48,0,2.82-.17,4.02-.52,1.2-.35,2.63-.94,4.3-1.77.18-.09.32-.14.42-.14.37,0,.55.16.55.48,0,.28-.16.51-.48.69-1.11.79-2.43,1.42-3.95,1.91-1.52.48-3.12.73-4.78.73-.46,0-1.11-.05-1.94-.14l-1.32,3.67c-.74,1.85-1.87,3.53-3.4,5.06-.69.69-1.57,1.22-2.63,1.59-.42.18-.92.28-1.52.28ZM436.49,41.37c-.09-.53-.3-1.07-.62-1.63-.42.55-.62,1.11-.62,1.66,0,.42.11.79.35,1.11.23.32.55.58.97.76.04-.74.02-1.37-.07-1.91Z"/>
    <path class="cls-2" d="M449.79,58.17c-.79,0-1.43-.51-1.94-1.52-.6-1.25-.9-2.79-.9-4.64-.05-2.68.18-5.57.69-8.66.23-1.76.67-3.4,1.32-4.92.28-.55.51-.95.69-1.18.32-.51.83-.69,1.52-.55.28.09.5.25.66.49.16.23.24.51.24.83s-.05.81-.14,1.46l-.42,3.33-.48,4.64c-.09,1.76-.14,3.03-.14,3.81l-.07,1.94s.04.21.14.48l.28-.42.83-1.46c1.66-2.86,2.73-4.67,3.19-5.41l2.91-4.85,1.87-2.98c.18-.32.42-.6.69-.83.32-.32.65-.35.97-.07.23.23.25.53.07.9l-.28.49c-2.4,3.97-5.06,8.89-7.97,14.76-.23.51-.46.95-.69,1.32-.23.37-.42.69-.55.97-.28.46-.51.81-.69,1.04-.55.69-1.16,1.04-1.8,1.04Z"/>
    <path class="cls-2" d="M471,60.8c-.79-1.02-1.11-2.19-.97-3.53.14-1.66.37-3.09.69-4.3l1.25-4.23.55-1.66.21-.69h-.07l-3.05,3.6-3.95,4.02c-.46.46-1.11.86-1.94,1.18-.46.19-.83.28-1.11.28-.97,0-1.69-.55-2.15-1.66-.23-.51-.35-1.13-.35-1.87,0-.55.07-1.11.21-1.66.92-4.16,2.7-7.46,5.34-9.91.51-.46,1.36-1.06,2.56-1.8.55-.28,1.06-.42,1.52-.42.74,0,1.46.28,2.15.83.79.69,1.34,1.55,1.66,2.56.05.09.16.42.35.97.51-.55,1.13-1.48,1.87-2.77l.42-.69c.28-.32.58-.49.9-.49.55,0,.92.28,1.11.83.09.46.11.83.07,1.11-.14.65-.32,1.43-.55,2.36-1.76,6.1-3.05,10.67-3.88,13.72-.14.51-.3,1.27-.48,2.29v.35c0,.46.18.69.55.69.14,0,.35-.05.62-.14,1.25-.69,2.51-2.02,3.78-3.98,1.27-1.96,2.99-4.86,5.16-8.7l2.98-5.2c.32-.42.62-.53.9-.35.14.14.21.25.21.35,0,.14-.12.39-.35.76-2.45,5.04-4.54,9.06-6.27,12.06-1.73,3-3.43,5.13-5.09,6.38-.69.46-1.62.74-2.77.83-.79,0-1.48-.37-2.08-1.11ZM464.49,52.56l1.46-1.11c1.02-.83,1.96-1.73,2.84-2.7.88-.97,1.69-1.91,2.43-2.81.74-.9,1.22-1.49,1.46-1.77.18-.18.28-.37.28-.55-.19-.74-.37-1.34-.55-1.8-.19-.46-.49-.88-.9-1.25-.46-.37-.86-.55-1.18-.55s-.67.19-1.04.55c-1.39,1.57-2.29,2.7-2.7,3.4-1.34,1.99-2.33,4.57-2.98,7.76-.05.23-.07.67-.07,1.32l.97-.49ZM473.08,31.91c0-.28.09-.6.28-.97.6-1.48,1.22-2.84,1.87-4.09.09-.28.28-.65.55-1.11.37-.55.85-.76,1.46-.62.46.09.79.51.97,1.25v.55c-.14.74-.25,1.2-.35,1.39l-1.66,3.88c-.19.37-.37.65-.55.83-.32.32-.67.49-1.04.49-.14,0-.35-.05-.62-.14-.6-.23-.9-.72-.9-1.46Z"/>
  </g>
  <path class="cls-1" d="M24.58,4.24c2.12.22,4.07.8,6.04,1.81,2.11,1.08,3.97,2.58,5.53,4.35,2.8,3.16,4.94,7.56,5.28,11.81.7-1.32.88-1.66,1.21-2.2.49-.83,1.04-1.63,1.64-2.38,1.28-1.61,2.8-3.06,4.5-4.21,3.49-2.36,7.86-3.48,12.01-2.51,8.72,2.04,11.37,11.61,10.88,19.5-1.13,18.48-12.71,34.56-28.95,43.07-7.59,3.97-17.04,6.63-25.62,5.18-1.81-.31-3.8-.76-5.4-1.7-.33-.2-1.43-.68-1.28-1.22.15-.55,2.24.49,2.43.57,4.31,1.76,9.06,1.66,13.57.86,16.65-2.91,32.45-16.54,38.21-32.4,2.75-7.55,5.26-17.63,2.18-25.47-3.57-9.11-14.51-6.5-20.31-1.23-1.47,1.33-2.33,2.73-3.33,4.45-.44.75-1.02,1.74-1.25,2.78-.11.49-.38,2.39-.83,2.64-1.55.86-1.49-3.04-1.55-3.77-.21-2.25-.68-4.46-1.45-6.58-2.81-7.63-10.93-14.39-19.29-10.53-7.43,3.44-11.18,12.32-12.06,20-1.01,8.88,2.42,17.74,7.05,25.17,4.26,6.85,11.36,15.21,20.36,11.92,8.36-3.06,11.92-12.05,14.56-19.79,1.13-3.32,2.22-9.32.01-13.55-1.95-3.73-7.17,2.49-8.26,4.58-.92,1.77-1.51,3.72-1.81,5.68-.4,2.68-1.34.59-1.82-.86-.59-1.77-4.24-10.51-6.52-7.6-2.59,3.33-.92,8.26,1.19,11.32.54.79,1.15,1.53,1.8,2.22.38.4,2.04,1.5,2.12,1.95.2,1.1-2.31,0-2.94-.4-3.2-2-5.41-6.02-6.07-9.64-.62-3.36.03-8.72,4.63-8.17,4.23.5,5.05,5.02,6.71,8.11,1.13-3.97,3.68-9.58,8.32-10.27,5.36-.79,7.18,5.98,6.97,10.02-.5,9.65-5.34,21.16-13.94,26.24-4.2,2.48-9.56,2.94-14.06.99-4.62-2-8.15-6.3-11.01-10.29-5.91-8.22-10.5-18.11-9.39-28.47C5.82,15.31,13.54,3.1,24.58,4.24"/>
</svg>